<?xml version="1.0" encoding="UTF-8" standalone="no"?>
<!-- Created with Inkscape (http://www.inkscape.org/) -->

<svg
   width="16"
   height="16"
   viewBox="0 0 4.2333334 4.2333335"
   version="1.1"
   id="svg5"
   sodipodi:docname="hydro.svg"
   inkscape:version="1.1.2 (0a00cf5339, 2022-02-04)"
   xmlns:inkscape="http://www.inkscape.org/namespaces/inkscape"
   xmlns:sodipodi="http://sodipodi.sourceforge.net/DTD/sodipodi-0.dtd"
   xmlns="http://www.w3.org/2000/svg"
   xmlns:svg="http://www.w3.org/2000/svg">
  <sodipodi:namedview
     id="namedview7"
     pagecolor="#ffffff"
     bordercolor="#666666"
     borderopacity="1.0"
     inkscape:pageshadow="2"
     inkscape:pageopacity="0.0"
     inkscape:pagecheckerboard="0"
     inkscape:document-units="mm"
     showgrid="false"
     fit-margin-top="0"
     fit-margin-left="0"
     fit-margin-right="0"
     fit-margin-bottom="0"
     inkscape:zoom="71.838384"
     inkscape:cx="15.562711"
     inkscape:cy="8.2824803"
     inkscape:window-width="3840"
     inkscape:window-height="2080"
     inkscape:window-x="2560"
     inkscape:window-y="0"
     inkscape:window-maximized="1"
     inkscape:current-layer="layer1"
     units="px"
     viewbox-width="16" />
  <defs
     id="defs2">
    <linearGradient
       id="linearGradient4128"
       inkscape:swatch="solid">
      <stop
         style="stop-color:#00bcff;stop-opacity:1;"
         offset="0"
         id="stop4126" />
    </linearGradient>
  </defs>
  <g
     inkscape:label="Layer 1"
     inkscape:groupmode="layer"
     id="layer1"
     transform="translate(-0.01916975,-0.02701768)">
    <g
       id="path80"
       transform="matrix(0.00985792,0,0,0.00985792,-1.7354529,-2.1013123)"
       style="fill:none;stroke:#00bcff;stroke-width:52.4031;stroke-linecap:round;stroke-linejoin:bevel;paint-order:stroke fill markers">
      <path
         style="color:#000000;fill:#00bcff;fill-rule:evenodd;stroke:none;-inkscape-stroke:none"
         d="M 400.54492,216.33789 C 299.99773,224.64956 213.7926,300.19978 197.01758,401.02344 178.49813,512.33174 252.75087,624.08538 366.41406,642.34375 468.62543,658.76254 571.12187,590.31433 587.20508,485.64453 601.51205,392.53456 538.85413,299.28575 443.1582,285.41016 359.1553,273.23001 275.13706,330.12341 263.51562,416.87305 c -10.03246,74.88849 41.1305,149.69887 118.97461,158.99609 65.76478,7.85454 131.4072,-37.63645 138.26758,-106.63867 5.63031,-56.63007 -34.28767,-113.17888 -94.55469,-117.4043 -47.48742,-3.32943 -95.09642,31.22122 -96.28906,82.94922 -0.44235,19.18627 6.28097,37.34951 18.64649,51.5625 12.36551,14.21299 31.96771,24.45055 53.76172,23.03711 a 26.201574,26.201574 0 0 0 24.45117,-27.8418 26.201574,26.201574 0 0 0 -27.84375,-24.45117 c -4.41038,0.28603 -7.35064,-1.13685 -10.83399,-5.14062 -3.48334,-4.00378 -5.91615,-10.61404 -5.79297,-15.95704 0.4351,-18.87145 20.40723,-33.27293 40.23438,-31.88281 28.46573,1.99578 48.94684,31.05032 46.07422,59.94336 -3.76375,37.85601 -41.96017,64.32111 -79.90625,59.78906 -47.14074,-5.6302 -79.5462,-53.00327 -73.25,-100.00195 7.55088,-56.3645 64.1301,-94.68812 120.18359,-86.56055 65.55008,9.50455 109.77619,75.30326 99.77149,140.41407 -11.47973,74.71024 -86.51322,124.83432 -160.6836,112.91992 C 290.8739,577.13573 234.86089,492.85685 248.70898,409.625 261.36771,333.54173 328.00562,274.91573 404.86133,268.5625 a 26.201574,26.201574 0 0 0 23.95508,-28.27148 26.201574,26.201574 0 0 0 -28.27149,-23.95313 z"
         id="path153" />
      <path
         style="color:#000000;fill:#00bcff;fill-rule:evenodd;stroke:none;-inkscape-stroke:none"
         d="m 400.50391,215.83789 c -100.7716,8.33023 -187.16661,84.04644 -203.98047,185.10352 -18.56382,111.57491 55.86593,223.59291 169.81054,241.89648 102.47774,16.46158 205.24057,-52.16484 221.36719,-157.11719 14.34782,-93.37582 -48.49112,-186.88796 -144.4707,-200.80468 -84.26833,-12.21863 -168.54933,44.85581 -180.20899,131.89062 -10.06795,75.15348 41.27923,150.2271 119.41016,159.55859 66.02899,7.88609 131.93317,-37.79488 138.82227,-107.08593 5.65655,-56.89405 -34.4582,-113.70525 -95.01758,-117.95118 -47.75197,-3.34796 -95.62281,31.41413 -96.82227,83.4375 -0.44508,19.30484 6.3269,37.59875 18.76953,51.9004 12.46505,14.32738 32.19701,24.63206 54.16993,23.20703 l 24.45117,-27.83985 -0.0645,-0.99609 -27.84179,-24.45313 c -4.25944,0.27625 -7.01022,-1.04512 -10.42383,-4.96875 -3.38969,-3.89612 -5.78975,-10.42369 -5.66992,-15.62109 0.42745,-18.5399 20.1354,-32.76619 39.69922,-31.39453 28.15111,1.97372 48.45759,30.76856 45.61132,59.39648 -3.7334,37.55084 -41.67036,63.84198 -79.34961,59.3418 -46.8412,-5.59443 -79.07483,-52.71002 -72.81445,-99.44141 7.5114,-56.06972 63.82951,-94.2196 119.61524,-86.13086 65.25826,9.46223 109.31304,75.00353 99.34961,139.84571 -11.4352,74.42072 -86.20777,124.37123 -160.10938,112.5 C 291.2415,576.68778 235.39789,492.66951 249.20117,409.70703 261.82012,333.8628 328.27436,275.39691 404.90234,269.0625 l 23.95508,-28.25977 -0.082,-0.99804 z"
         id="path155" />
    </g>
  </g>
</svg>
